<?xml version="1.0"?>
<svg xmlns="http://www.w3.org/2000/svg" xmlns:xlink="http://www.w3.org/1999/xlink" xmlns:svgjs="http://svgjs.com/svgjs" version="1.1" width="512" height="512" x="0" y="0" viewBox="0 0 512 512.00204" style="enable-background:new 0 0 512 512" xml:space="preserve" class=""><g><path xmlns="http://www.w3.org/2000/svg" d="m373.195312 128.003906c0 70.695313-57.3125 128.007813-128.007812 128.007813-70.6875 0-128.003906 57.304687-128.003906 128 0 61.796875 43.78125 113.351562 102.015625 125.359375-123.945313-17.839844-219.199219-124.480469-219.199219-253.371094 0-139.261719 111.199219-252.550781 249.660156-255.9140625 68.628906 2.3515625 123.535156 58.7226565 123.535156 127.9179685zm0 0" fill="#ffda45" data-original="#ffda45" style="" class=""/><path xmlns="http://www.w3.org/2000/svg" d="m245.191406 184.5625c-31.1875 0-56.558594-25.371094-56.558594-56.558594 0-31.183594 25.371094-56.558594 56.558594-56.558594 31.183594 0 56.554688 25.375 56.554688 56.558594 0 31.1875-25.371094 56.558594-56.554688 56.558594zm0 0" fill="#ffffff" data-original="#ffffff" style="" class=""/><path xmlns="http://www.w3.org/2000/svg" d="m249.660156.0859375c-1.496094.0351565-2.980468.1015625-4.46875.1640625v255.761719c70.695313-.003907 128.003906-57.3125 128.003906-128.011719 0-69.191406-54.90625-125.5625-123.535156-127.9140625zm0 0" fill="#ffda45" data-original="#ffb13b" style="" class=""/><path xmlns="http://www.w3.org/2000/svg" d="m301.746094 128.003906c0-31.183594-25.371094-56.554687-56.554688-56.554687v113.113281c31.183594 0 56.554688-25.371094 56.554688-56.558594zm0 0" fill="#ffffff" data-original="#fff8ab" style="" class=""/><path xmlns="http://www.w3.org/2000/svg" d="m512 256c0 141.386719-114.613281 256-256 256-12.496094 0-24.785156-.898438-36.800781-2.632812-58.230469-12.003907-102.015625-63.5625-102.015625-125.355469 0-70.699219 57.316406-128 128.003906-128 70.695312 0 128.007812-57.3125 128.007812-128.011719 0-69.191406-54.90625-125.566406-123.539062-127.9179688 2.101562-.0625 4.222656-.0820312 6.34375-.0820312 141.386719.00390625 256 114.617188 256 256zm0 0" fill="#f3bf45" data-original="#ff5542" style="" class=""/><path xmlns="http://www.w3.org/2000/svg" d="m256 .00390625c-2.121094 0-4.242188.01953125-6.34375.08203125 68.628906 2.3515625 123.539062 58.7226565 123.539062 127.9179685 0 70.695313-57.308593 128.007813-128.003906 128.007813v255.757812c3.585938.148438 7.1875.234375 10.808594.234375 141.386719 0 256-114.617187 256-256 0-141.386718-114.613281-255.99999975-256-255.99999975zm0 0" fill="#f3bf45" data-original="#f01f4c" style="" class=""/><path xmlns="http://www.w3.org/2000/svg" d="m245.191406 440.570312c-31.1875 0-56.558594-25.371093-56.558594-56.558593 0-31.183594 25.371094-56.558594 56.558594-56.558594 31.183594 0 56.554688 25.375 56.554688 56.558594 0 31.1875-25.371094 56.558593-56.554688 56.558593zm0 0" fill="#ffffff" data-original="#ffffff" style="" class=""/><path xmlns="http://www.w3.org/2000/svg" d="m301.746094 384.011719c0-31.183594-25.371094-56.554688-56.554688-56.554688v113.113281c31.183594 0 56.554688-25.371093 56.554688-56.558593zm0 0" fill="#ffffff" data-original="#fff8ab" style="" class=""/></g></svg>
